<mxfile modified="2022-02-19T14:43:07.541Z" host="app.diagrams.net" agent="5.0 (Windows NT 10.0; Win64; x64) AppleWebKit/537.36 (KHTML, like Gecko) Chrome/98.0.4758.102 Safari/537.36" etag="XVS32KlQw_74suLhpD8w" version="16.6.1" type="github">
  <diagram id="f106602c-feb2-e66a-4537-3a34d633f6aa" name="Page-1">
    <mxGraphModel dx="952" dy="605" grid="1" gridSize="10" guides="1" tooltips="1" connect="1" arrows="1" fold="1" page="1" pageScale="1" pageWidth="1169" pageHeight="827" background="none" math="0" shadow="0">
      <root>
        <mxCell id="0" />
        <mxCell id="1" parent="0" />
        <mxCell id="14" value="&lt;b&gt;Google &lt;/b&gt;Cloud Platform" style="fillColor=#F6F6F6;strokeColor=none;shadow=0;gradientColor=none;fontSize=14;align=left;spacing=10;fontColor=#717171;9E9E9E;verticalAlign=top;spacingTop=-4;fontStyle=0;spacingLeft=40;html=1;" parent="1" vertex="1">
          <mxGeometry x="260" y="88" width="800" height="550" as="geometry" />
        </mxCell>
        <mxCell id="15" value="" style="shape=mxgraph.gcp2.google_cloud_platform;fillColor=#F6F6F6;strokeColor=none;shadow=0;gradientColor=none;" parent="14" vertex="1">
          <mxGeometry width="23" height="20" relative="1" as="geometry">
            <mxPoint x="20" y="10" as="offset" />
          </mxGeometry>
        </mxCell>
        <mxCell id="_MsD6CqVpkrZbkvQiYRN-703" value="" style="editableCssRules=.*;shape=image;verticalLabelPosition=bottom;labelBackgroundColor=#ffffff;verticalAlign=top;aspect=fixed;imageAspect=0;image=data:image/svg+xml,PHN2ZyB4bWxucz0iaHR0cDovL3d3dy53My5vcmcvMjAwMC9zdmciIHhtbG5zOnY9Imh0dHBzOi8vdmVjdGEuaW8vbmFubyIgd2lkdGg9IjMwIiBoZWlnaHQ9IjIxIiB2aWV3Qm94PSIwIDAgMzAgMjEiPiYjeGE7CTxzdHlsZSB0eXBlPSJ0ZXh0L2NzcyI+JiN4YTsJLnN0MHtmaWxsOiM0Mjg1ZjQ7fSYjeGE7CS5zdDF7ZmlsbDojNjY5ZGY2O30mI3hhOwkuc3Qye2ZpbGw6I2FlY2JmYTt9JiN4YTsJLnN0M3tmaWxsOiNmZmY7fSYjeGE7CTwvc3R5bGU+JiN4YTsJPHBhdGggZD0iTTAgMGwxLjUgMS41aDZMOSAweiIgY2xhc3M9InN0MiIvPiYjeGE7CTxwYXRoIGQ9Ik05IDlWMEw3LjUgMS41djZ6IiBjbGFzcz0ic3QxIi8+JiN4YTsJPHBhdGggZD0iTTAgOWwxLjUtMS41di02TDAgMHoiIGNsYXNzPSJzdDIiLz4mI3hhOwk8cGF0aCBkPSJNOSA5TDcuNSA3LjVoLTZMMCA5eiIgY2xhc3M9InN0MCIvPiYjeGE7CTxwYXRoIGQ9Ik0xLjUgMS41aDZ2NmgtNnoiIGNsYXNzPSJzdDIiLz4mI3hhOwk8cGF0aCBkPSJNMTAuNSAwTDEyIDEuNWg2TDE5LjUgMHoiIGNsYXNzPSJzdDAiLz4mI3hhOwk8cGF0aCBkPSJNMTkuNSA5VjBMMTggMS41djZ6IiBjbGFzcz0ic3QxIi8+JiN4YTsJPHBhdGggZD0iTTEwLjUgOUwxMiA3LjV2LTZMMTAuNSAweiIgY2xhc3M9InN0MCIvPiYjeGE7CTxwYXRoIGQ9Ik0xOS41IDlMMTggNy41aC02TDEwLjUgOXoiIGNsYXNzPSJzdDEiLz4mI3hhOwk8cGF0aCBkPSJNMTIgMS41aDZ2NmgtNnoiIGNsYXNzPSJzdDMiLz4mI3hhOwk8cGF0aCBkPSJNMjEgMGwxLjUgMS41aDZMMzAgMHoiIGNsYXNzPSJzdDAiLz4mI3hhOwk8cGF0aCBkPSJNMzAgOVYwbC0xLjUgMS41djZ6IiBjbGFzcz0ic3QxIi8+JiN4YTsJPHBhdGggZD0iTTIxIDlsMS41LTEuNXYtNkwyMSAweiIgY2xhc3M9InN0MCIvPiYjeGE7CTxwYXRoIGQ9Ik0zMCA5bC0xLjUtMS41aC02TDIxIDl6IiBjbGFzcz0ic3QxIi8+JiN4YTsJPHBhdGggZD0iTTIyLjUgMS41aDZ2NmgtNnoiIGNsYXNzPSJzdDMiLz4mI3hhOwk8cGF0aCBkPSJNMCAxMmwxLjUgMS41aDZMOSAxMnoiIGNsYXNzPSJzdDAiLz4mI3hhOwk8cGF0aCBkPSJNOSAyMXYtOWwtMS41IDEuNXY2eiIgY2xhc3M9InN0MSIvPiYjeGE7CTxwYXRoIGQ9Ik0wIDIxbDEuNS0xLjV2LTZMMCAxMnoiIGNsYXNzPSJzdDAiLz4mI3hhOwk8cGF0aCBkPSJNOSAyMWwtMS41LTEuNWgtNkwwIDIxeiIgY2xhc3M9InN0MSIvPiYjeGE7CTxwYXRoIGQ9Ik0xLjUgMTMuNWg2djZoLTZ6IiBjbGFzcz0ic3QzIi8+JiN4YTsJPHBhdGggZD0iTTEwLjUgMTJsMS41IDEuNWg2bDEuNS0xLjV6IiBjbGFzcz0ic3QyIi8+JiN4YTsJPHBhdGggZD0iTTE5LjUgMjF2LTlMMTggMTMuNXY2eiIgY2xhc3M9InN0MSIvPiYjeGE7CTxwYXRoIGQ9Ik0xMC41IDIxbDEuNS0xLjV2LTZMMTAuNSAxMnoiIGNsYXNzPSJzdDIiLz4mI3hhOwk8cGF0aCBkPSJNMTkuNSAyMUwxOCAxOS41aC02TDEwLjUgMjF6IiBjbGFzcz0ic3QwIi8+JiN4YTsJPHBhdGggZD0iTTEyIDEzLjVoNnY2aC02em05LTEuNWwxLjUgMS41aDZMMzAgMTJ6IiBjbGFzcz0ic3QyIi8+JiN4YTsJPHBhdGggZD0iTTMwIDIxdi05bC0xLjUgMS41djZ6IiBjbGFzcz0ic3QxIi8+JiN4YTsJPHBhdGggZD0iTTIxIDIxbDEuNS0xLjV2LTZMMjEgMTJ6IiBjbGFzcz0ic3QyIi8+JiN4YTsJPHBhdGggZD0iTTMwIDIxbC0xLjUtMS41aC02TDIxIDIxeiIgY2xhc3M9InN0MCIvPiYjeGE7CTxwYXRoIGQ9Ik0yMi41IDEzLjVoNnY2aC02eiIgY2xhc3M9InN0MiIvPiYjeGE7PC9zdmc+;shadow=0;fontColor=#000000;" vertex="1" parent="14">
          <mxGeometry x="30" y="140" width="50" height="35" as="geometry" />
        </mxCell>
        <mxCell id="2" value="Architecture: Internet of Things &amp;gt; MQTT to PubSub Broker" style="fillColor=#4DA1F5;strokeColor=none;shadow=1;gradientColor=none;fontSize=14;align=left;spacingLeft=50;fontColor=#ffffff;html=1;" parent="1" vertex="1">
          <mxGeometry x="209.5" y="40" width="750" height="40" as="geometry" />
        </mxCell>
        <mxCell id="582" style="edgeStyle=elbowEdgeStyle;rounded=0;elbow=vertical;html=1;labelBackgroundColor=none;startArrow=blockThin;startFill=1;startSize=4;endArrow=blockThin;endFill=1;endSize=4;jettySize=auto;orthogonalLoop=1;strokeColor=#4284F3;strokeWidth=2;fontSize=12;fontColor=#000000;align=center;dashed=0;" parent="1" edge="1">
          <mxGeometry relative="1" as="geometry">
            <mxPoint x="293.75" y="328.034188034188" as="sourcePoint" />
            <mxPoint x="293.75" y="330" as="targetPoint" />
          </mxGeometry>
        </mxCell>
        <mxCell id="_MsD6CqVpkrZbkvQiYRN-687" value="" style="edgeStyle=orthogonalEdgeStyle;rounded=0;orthogonalLoop=1;jettySize=auto;html=1;fontColor=#000000;" edge="1" parent="1">
          <mxGeometry relative="1" as="geometry">
            <mxPoint x="429.2295081967213" y="299.1" as="sourcePoint" />
            <mxPoint x="453" y="275" as="targetPoint" />
          </mxGeometry>
        </mxCell>
        <mxCell id="_MsD6CqVpkrZbkvQiYRN-688" value="" style="edgeStyle=orthogonalEdgeStyle;rounded=0;orthogonalLoop=1;jettySize=auto;html=1;fontColor=#000000;entryX=0;entryY=0.5;entryDx=0;entryDy=0;" edge="1" parent="1" source="_MsD6CqVpkrZbkvQiYRN-689" target="_MsD6CqVpkrZbkvQiYRN-694">
          <mxGeometry relative="1" as="geometry">
            <mxPoint x="318" y="115" as="targetPoint" />
          </mxGeometry>
        </mxCell>
        <mxCell id="_MsD6CqVpkrZbkvQiYRN-689" value="&lt;span style=&quot;font-size: 12px ; text-align: left&quot;&gt;数据分片1&lt;/span&gt;" style="shadow=0;strokeWidth=1;rounded=1;absoluteArcSize=1;arcSize=2;fontSize=10;align=center;html=1;fillColor=#dae8fc;strokeColor=#6c8ebf;" vertex="1" parent="1">
          <mxGeometry x="408.5" y="190" width="112" height="30" as="geometry" />
        </mxCell>
        <mxCell id="_MsD6CqVpkrZbkvQiYRN-690" value="&lt;span style=&quot;font-size: 12px ; text-align: left&quot;&gt;数据分片1&lt;/span&gt;" style="shadow=0;strokeWidth=1;rounded=1;absoluteArcSize=1;arcSize=2;fontSize=10;align=center;html=1;fillColor=#dae8fc;strokeColor=#6c8ebf;" vertex="1" parent="1">
          <mxGeometry x="408.5" y="270" width="112" height="30" as="geometry" />
        </mxCell>
        <mxCell id="_MsD6CqVpkrZbkvQiYRN-691" value="" style="edgeStyle=orthogonalEdgeStyle;rounded=0;orthogonalLoop=1;jettySize=auto;html=1;fontColor=#000000;fillColor=#dae8fc;strokeColor=#000000;" edge="1" parent="1" source="_MsD6CqVpkrZbkvQiYRN-692" target="_MsD6CqVpkrZbkvQiYRN-697">
          <mxGeometry relative="1" as="geometry" />
        </mxCell>
        <mxCell id="_MsD6CqVpkrZbkvQiYRN-692" value="&lt;span style=&quot;font-size: 12px ; text-align: left&quot;&gt;数据分片1&lt;/span&gt;" style="shadow=0;strokeWidth=1;rounded=1;absoluteArcSize=1;arcSize=2;fontSize=10;align=center;html=1;fillColor=#dae8fc;strokeColor=#6c8ebf;" vertex="1" parent="1">
          <mxGeometry x="408.5" y="230" width="112" height="30" as="geometry" />
        </mxCell>
        <mxCell id="_MsD6CqVpkrZbkvQiYRN-693" value="" style="edgeStyle=orthogonalEdgeStyle;rounded=0;orthogonalLoop=1;jettySize=auto;html=1;fontColor=#000000;entryX=0;entryY=0.5;entryDx=0;entryDy=0;" edge="1" parent="1" source="_MsD6CqVpkrZbkvQiYRN-694" target="_MsD6CqVpkrZbkvQiYRN-698">
          <mxGeometry relative="1" as="geometry" />
        </mxCell>
        <mxCell id="_MsD6CqVpkrZbkvQiYRN-694" value="&lt;span style=&quot;font-size: 12px ; text-align: left&quot;&gt;########&lt;/span&gt;" style="shadow=0;strokeWidth=1;rounded=1;absoluteArcSize=1;arcSize=2;fontSize=10;align=center;html=1;fillColor=#dae8fc;strokeColor=#6c8ebf;" vertex="1" parent="1">
          <mxGeometry x="597" y="190" width="112" height="30" as="geometry" />
        </mxCell>
        <mxCell id="_MsD6CqVpkrZbkvQiYRN-695" value="&lt;span style=&quot;font-size: 12px ; text-align: left&quot;&gt;########&lt;/span&gt;" style="shadow=0;strokeWidth=1;rounded=1;absoluteArcSize=1;arcSize=2;fontSize=10;align=center;html=1;fillColor=#dae8fc;strokeColor=#6c8ebf;" vertex="1" parent="1">
          <mxGeometry x="597" y="270" width="112" height="30" as="geometry" />
        </mxCell>
        <mxCell id="_MsD6CqVpkrZbkvQiYRN-696" value="" style="edgeStyle=orthogonalEdgeStyle;rounded=0;orthogonalLoop=1;jettySize=auto;html=1;fontColor=#000000;" edge="1" parent="1" source="_MsD6CqVpkrZbkvQiYRN-697" target="_MsD6CqVpkrZbkvQiYRN-700">
          <mxGeometry relative="1" as="geometry" />
        </mxCell>
        <mxCell id="_MsD6CqVpkrZbkvQiYRN-697" value="&lt;span style=&quot;font-size: 12px ; text-align: left&quot;&gt;########&lt;/span&gt;" style="shadow=0;strokeWidth=1;rounded=1;absoluteArcSize=1;arcSize=2;fontSize=10;align=center;html=1;fillColor=#dae8fc;strokeColor=#6c8ebf;" vertex="1" parent="1">
          <mxGeometry x="597" y="230" width="112" height="30" as="geometry" />
        </mxCell>
        <mxCell id="_MsD6CqVpkrZbkvQiYRN-698" value="&lt;span style=&quot;font-size: 12px ; text-align: left&quot;&gt;数据分片1索引&lt;/span&gt;" style="shadow=0;strokeWidth=1;rounded=1;absoluteArcSize=1;arcSize=2;fontSize=10;align=center;html=1;fillColor=#dae8fc;strokeColor=#6c8ebf;" vertex="1" parent="1">
          <mxGeometry x="788" y="190" width="112" height="30" as="geometry" />
        </mxCell>
        <mxCell id="_MsD6CqVpkrZbkvQiYRN-699" value="&lt;span style=&quot;font-size: 12px ; text-align: left&quot;&gt;数据分片3索引&lt;/span&gt;" style="shadow=0;strokeWidth=1;rounded=1;absoluteArcSize=1;arcSize=2;fontSize=10;align=center;html=1;fillColor=#dae8fc;strokeColor=#6c8ebf;" vertex="1" parent="1">
          <mxGeometry x="788" y="270" width="112" height="30" as="geometry" />
        </mxCell>
        <mxCell id="_MsD6CqVpkrZbkvQiYRN-700" value="&lt;span style=&quot;font-size: 12px ; text-align: left&quot;&gt;数据分片2索引&lt;/span&gt;" style="shadow=0;strokeWidth=1;rounded=1;absoluteArcSize=1;arcSize=2;fontSize=10;align=center;html=1;fillColor=#dae8fc;strokeColor=#6c8ebf;" vertex="1" parent="1">
          <mxGeometry x="788" y="230" width="112" height="30" as="geometry" />
        </mxCell>
        <mxCell id="_MsD6CqVpkrZbkvQiYRN-701" value="" style="edgeStyle=orthogonalEdgeStyle;rounded=0;orthogonalLoop=1;jettySize=auto;html=1;fontColor=#000000;entryX=0;entryY=0.5;entryDx=0;entryDy=0;" edge="1" parent="1" source="_MsD6CqVpkrZbkvQiYRN-695" target="_MsD6CqVpkrZbkvQiYRN-699">
          <mxGeometry relative="1" as="geometry" />
        </mxCell>
        <mxCell id="_MsD6CqVpkrZbkvQiYRN-702" value="" style="edgeStyle=orthogonalEdgeStyle;rounded=0;orthogonalLoop=1;jettySize=auto;html=1;fontColor=#000000;" edge="1" parent="1" source="_MsD6CqVpkrZbkvQiYRN-690">
          <mxGeometry relative="1" as="geometry">
            <mxPoint x="598" y="285" as="targetPoint" />
          </mxGeometry>
        </mxCell>
        <mxCell id="_MsD6CqVpkrZbkvQiYRN-704" value="" style="edgeStyle=orthogonalEdgeStyle;rounded=0;orthogonalLoop=1;jettySize=auto;html=1;fontColor=#000000;strokeColor=#000000;" edge="1" parent="1" source="_MsD6CqVpkrZbkvQiYRN-703" target="_MsD6CqVpkrZbkvQiYRN-692">
          <mxGeometry relative="1" as="geometry" />
        </mxCell>
        <mxCell id="_MsD6CqVpkrZbkvQiYRN-705" value="" style="edgeStyle=orthogonalEdgeStyle;rounded=0;orthogonalLoop=1;jettySize=auto;html=1;fontColor=#000000;strokeColor=#000000;entryX=0;entryY=0.5;entryDx=0;entryDy=0;" edge="1" parent="1" source="_MsD6CqVpkrZbkvQiYRN-703" target="_MsD6CqVpkrZbkvQiYRN-690">
          <mxGeometry relative="1" as="geometry" />
        </mxCell>
        <mxCell id="_MsD6CqVpkrZbkvQiYRN-706" value="" style="edgeStyle=orthogonalEdgeStyle;rounded=0;orthogonalLoop=1;jettySize=auto;html=1;fontColor=#000000;strokeColor=#000000;entryX=0;entryY=0.5;entryDx=0;entryDy=0;exitX=1;exitY=0.5;exitDx=0;exitDy=0;" edge="1" parent="1" source="_MsD6CqVpkrZbkvQiYRN-703" target="_MsD6CqVpkrZbkvQiYRN-689">
          <mxGeometry relative="1" as="geometry">
            <mxPoint x="350" y="255.5" as="sourcePoint" />
            <mxPoint x="418.5" y="295" as="targetPoint" />
          </mxGeometry>
        </mxCell>
      </root>
    </mxGraphModel>
  </diagram>
</mxfile>
